<?xml version="1.0" encoding="iso-8859-1"?>
<!-- Generator: Adobe Illustrator 19.0.0, SVG Export Plug-In . SVG Version: 6.00 Build 0)  -->
<svg version="1.1" id="Layer_1" xmlns="http://www.w3.org/2000/svg" xmlns:xlink="http://www.w3.org/1999/xlink" x="0px" y="0px"
	 viewBox="0 0 512 512" style="enable-background:new 0 0 512 512;" xml:space="preserve">
<g>
	<g>
		<g>
			<path d="M169.464,277.925V130.752c0-4.611-3.737-8.348-8.348-8.348s-8.348,3.737-8.348,8.348v152.43c0,0.027,0,0.052,0,0.079
				v41.156H117.96H83.152V26.974h69.616v57.135c0,4.611,3.737,8.348,8.348,8.348s8.348-3.736,8.348-8.348V18.626
				c0-4.611-3.737-8.348-8.348-8.348H74.804c-4.611,0-8.348,3.737-8.348,8.348v259.281C25.916,297.607,0,338.632,0,383.887
				c0,64.974,52.917,117.835,117.96,117.835s117.96-52.861,117.96-117.835C235.921,338.621,210.01,297.626,169.464,277.925z
				 M109.611,484.682c-0.112-0.009-0.224-0.02-0.336-0.03c-1.476-0.126-2.945-0.278-4.402-0.467
				c-0.109-0.014-0.218-0.031-0.327-0.046c-1.519-0.201-3.03-0.433-4.528-0.701c-0.014-0.002-0.029-0.006-0.043-0.008
				c-1.518-0.273-3.024-0.582-4.518-0.922c-0.066-0.015-0.131-0.028-0.196-0.042c-1.449-0.333-2.885-0.701-4.31-1.095
				c-0.122-0.033-0.246-0.066-0.37-0.1c-1.385-0.388-2.756-0.81-4.116-1.255c-0.155-0.05-0.309-0.099-0.464-0.15
				c-1.337-0.445-2.66-0.919-3.971-1.418c-0.168-0.063-0.336-0.127-0.503-0.191c-1.299-0.502-2.584-1.031-3.857-1.584
				c-0.169-0.073-0.338-0.148-0.508-0.223c-1.27-0.561-2.527-1.146-3.769-1.756c-0.157-0.077-0.314-0.156-0.471-0.234
				c-1.25-0.622-2.487-1.268-3.706-1.94c-0.135-0.075-0.268-0.15-0.403-0.225c-1.238-0.689-2.462-1.401-3.667-2.14
				c-0.099-0.061-0.197-0.124-0.295-0.185c-1.238-0.765-2.46-1.552-3.661-2.366c-0.044-0.03-0.089-0.062-0.134-0.092
				c-2.501-1.703-4.922-3.514-7.256-5.427c-0.026-0.021-0.051-0.04-0.076-0.061c-1.131-0.929-2.24-1.885-3.329-2.862
				c-0.075-0.067-0.15-0.132-0.225-0.199c-1.054-0.951-2.085-1.924-3.098-2.917c-0.1-0.099-0.203-0.196-0.303-0.296
				c-0.988-0.977-1.956-1.976-2.904-2.993c-0.114-0.122-0.228-0.244-0.342-0.366c-0.934-1.011-1.845-2.041-2.737-3.09
				c-0.114-0.134-0.228-0.268-0.341-0.403c-0.885-1.051-1.749-2.118-2.59-3.204c-0.107-0.138-0.213-0.277-0.318-0.415
				c-0.841-1.096-1.663-2.211-2.459-3.341c-0.09-0.128-0.178-0.257-0.267-0.385c-0.804-1.152-1.586-2.321-2.343-3.507
				c-0.068-0.106-0.132-0.214-0.199-0.319c-0.771-1.22-1.52-2.455-2.239-3.71c-0.033-0.058-0.065-0.117-0.098-0.175
				c-1.488-2.607-2.864-5.285-4.12-8.028c-0.028-0.06-0.057-0.119-0.085-0.18c-0.601-1.319-1.17-2.655-1.715-4.004
				c-0.05-0.124-0.102-0.247-0.152-0.371c-0.523-1.309-1.015-2.632-1.485-3.967c-0.059-0.168-0.119-0.335-0.178-0.503
				c-0.453-1.312-0.878-2.638-1.278-3.975c-0.058-0.193-0.116-0.384-0.173-0.577c-0.388-1.326-0.749-2.664-1.084-4.011
				c-0.051-0.207-0.102-0.413-0.151-0.621c-0.325-1.348-0.624-2.706-0.895-4.074c-0.041-0.207-0.08-0.415-0.12-0.622
				c-0.264-1.38-0.502-2.768-0.709-4.167c-0.028-0.191-0.053-0.384-0.081-0.575c-0.203-1.425-0.378-2.857-0.521-4.301
				c-0.016-0.157-0.028-0.315-0.042-0.472c-0.139-1.485-0.25-2.976-0.325-4.479c-0.004-0.099-0.007-0.199-0.011-0.299
				c-0.072-1.566-0.114-3.14-0.114-4.724c0.001-36.049,19.176-68.969,49.762-87.039v32.199c-1.06,1-2.091,2.022-3.085,3.073
				c-13.237,13.993-20.693,32.447-20.693,51.767c0,1.254,0.035,2.5,0.095,3.739c0.02,0.412,0.06,0.818,0.087,1.229
				c0.055,0.824,0.108,1.648,0.188,2.464c0.048,0.484,0.115,0.963,0.171,1.444c0.087,0.736,0.173,1.471,0.281,2.201
				c0.076,0.508,0.167,1.008,0.253,1.513c0.118,0.695,0.236,1.388,0.372,2.076c0.102,0.514,0.218,1.023,0.331,1.534
				c0.148,0.669,0.297,1.337,0.463,1.999c0.128,0.512,0.266,1.02,0.404,1.527c0.178,0.651,0.359,1.301,0.554,1.946
				c0.151,0.503,0.312,1.003,0.473,1.503c0.208,0.639,0.422,1.273,0.647,1.904c0.175,0.492,0.354,0.982,0.539,1.469
				c0.238,0.628,0.485,1.25,0.739,1.87c0.196,0.476,0.393,0.953,0.598,1.425c0.269,0.62,0.551,1.234,0.837,1.845
				c0.214,0.457,0.426,0.915,0.649,1.368c0.304,0.618,0.621,1.227,0.942,1.834c0.228,0.433,0.452,0.867,0.688,1.294
				c0.344,0.623,0.705,1.237,1.066,1.85c0.234,0.396,0.461,0.797,0.702,1.189c0.401,0.652,0.82,1.291,1.24,1.93
				c0.223,0.338,0.435,0.682,0.663,1.016c0.51,0.749,1.04,1.483,1.575,2.212c0.156,0.211,0.302,0.431,0.46,0.64
				c0.708,0.944,1.437,1.871,2.188,2.78c0.052,0.062,0.107,0.122,0.159,0.185c0.695,0.835,1.405,1.656,2.134,2.46
				c0.234,0.258,0.479,0.504,0.716,0.759c0.558,0.599,1.117,1.195,1.695,1.776c0.299,0.3,0.609,0.59,0.914,0.886
				c0.532,0.518,1.065,1.034,1.613,1.536c0.338,0.311,0.686,0.61,1.03,0.914c0.531,0.469,1.063,0.936,1.606,1.39
				c0.367,0.306,0.741,0.603,1.113,0.903c0.539,0.433,1.08,0.863,1.631,1.281c0.39,0.296,0.784,0.583,1.179,0.872
				c0.551,0.402,1.105,0.798,1.667,1.185c0.409,0.282,0.82,0.557,1.234,0.83c0.567,0.374,1.136,0.74,1.713,1.099
				c0.423,0.264,0.848,0.523,1.278,0.779c0.583,0.347,1.172,0.683,1.765,1.015c0.436,0.244,0.873,0.486,1.315,0.722
				c0.603,0.322,1.213,0.63,1.826,0.936c0.444,0.221,0.886,0.444,1.335,0.657c0.631,0.299,1.27,0.582,1.91,0.864
				c0.443,0.195,0.884,0.394,1.331,0.581c0.667,0.278,1.342,0.538,2.018,0.797c0.434,0.167,0.864,0.341,1.302,0.499
				c0.727,0.264,1.464,0.504,2.202,0.746c0.397,0.13,0.789,0.271,1.189,0.394c0.898,0.277,1.806,0.529,2.718,0.772
				c0.248,0.067,0.492,0.145,0.742,0.208c1.163,0.298,2.336,0.57,3.521,0.814c0.327,0.068,0.661,0.118,0.99,0.18
				c0.859,0.165,1.719,0.327,2.587,0.463c0.471,0.073,0.948,0.127,1.422,0.191c0.626,0.086,1.247,0.183,1.877,0.253V484.682z
				 M59.373,383.888c0-16.189,6.75-31.615,18.617-42.775h39.971h39.891c11.917,11.083,18.695,26.508,18.695,42.775
				c0,32.262-26.281,58.509-58.586,58.509C85.655,442.397,59.373,416.15,59.373,383.888z M126.308,484.681V458.62
				c37.595-4.164,66.934-36.084,66.934-74.732c0-20.816-8.618-40.554-23.778-54.773v-32.253
				c30.591,18.069,49.761,50.967,49.761,87.026C219.225,436.849,178.255,480.427,126.308,484.681z"/>
			<path d="M445.544,277.925v-33.71c0-4.611-3.737-8.348-8.348-8.348s-8.348,3.737-8.348,8.348v38.959c0,0.032,0,0.066,0,0.098
				v41.146H394.04h-34.807V26.974h69.616v170.823c0,4.611,3.737,8.348,8.348,8.348s8.348-3.736,8.348-8.348V18.626
				c0-4.611-3.737-8.348-8.348-8.348h-86.312c-4.611,0-8.348,3.737-8.348,8.348v259.281c-40.54,19.7-66.456,60.723-66.456,105.98
				c0,64.974,52.916,117.835,117.959,117.835S512,448.861,512,383.887C512,338.621,486.089,297.626,445.544,277.925z
				 M385.695,484.681c-0.112-0.009-0.225-0.02-0.337-0.03c-1.476-0.126-2.944-0.278-4.401-0.466
				c-0.11-0.014-0.219-0.031-0.328-0.046c-1.519-0.201-3.029-0.433-4.527-0.701c-0.016-0.002-0.03-0.006-0.045-0.009
				c-1.517-0.273-3.021-0.582-4.515-0.922c-0.067-0.014-0.134-0.028-0.199-0.043c-1.448-0.333-2.883-0.7-4.306-1.094
				c-0.124-0.034-0.248-0.066-0.372-0.101c-1.385-0.388-2.755-0.809-4.115-1.256c-0.155-0.051-0.311-0.099-0.464-0.15
				c-1.336-0.445-2.658-0.919-3.969-1.417c-0.169-0.065-0.338-0.128-0.506-0.193c-1.298-0.502-2.582-1.03-3.853-1.583
				c-0.17-0.075-0.341-0.148-0.511-0.224c-1.269-0.56-2.524-1.145-3.765-1.755c-0.158-0.078-0.316-0.157-0.474-0.236
				c-1.249-0.622-2.484-1.267-3.703-1.939c-0.136-0.075-0.271-0.151-0.405-0.227c-1.238-0.689-2.46-1.4-3.665-2.138
				c-0.099-0.061-0.198-0.125-0.297-0.186c-1.237-0.765-2.459-1.55-3.66-2.366c-0.045-0.03-0.089-0.062-0.134-0.092
				c-2.501-1.703-4.922-3.514-7.255-5.427c-0.026-0.021-0.051-0.041-0.076-0.061c-1.131-0.929-2.239-1.885-3.329-2.862
				c-0.075-0.067-0.15-0.132-0.225-0.199c-1.054-0.951-2.085-1.924-3.098-2.917c-0.101-0.099-0.203-0.196-0.303-0.296
				c-0.988-0.977-1.956-1.976-2.904-2.993c-0.114-0.122-0.228-0.244-0.342-0.366c-0.934-1.011-1.847-2.041-2.738-3.09
				c-0.113-0.134-0.227-0.267-0.339-0.401c-0.885-1.051-1.75-2.119-2.591-3.206c-0.107-0.137-0.211-0.275-0.317-0.413
				c-0.841-1.096-1.662-2.209-2.459-3.341c-0.091-0.129-0.18-0.259-0.271-0.39c-0.804-1.152-1.586-2.32-2.342-3.506
				c-0.067-0.105-0.131-0.21-0.197-0.315c-0.771-1.22-1.52-2.456-2.241-3.711c-0.034-0.06-0.067-0.12-0.101-0.18
				c-1.488-2.606-2.863-5.283-4.119-8.026c-0.028-0.06-0.057-0.119-0.083-0.179c-0.601-1.319-1.17-2.656-1.715-4.004
				c-0.05-0.124-0.102-0.247-0.153-0.371c-0.523-1.309-1.015-2.632-1.485-3.967c-0.059-0.168-0.119-0.335-0.178-0.503
				c-0.453-1.311-0.877-2.637-1.277-3.971c-0.058-0.194-0.117-0.387-0.174-0.582c-0.388-1.326-0.748-2.662-1.083-4.009
				c-0.051-0.207-0.102-0.414-0.151-0.621c-0.325-1.348-0.624-2.706-0.895-4.074c-0.041-0.207-0.08-0.415-0.12-0.622
				c-0.264-1.38-0.502-2.768-0.709-4.167c-0.028-0.191-0.053-0.384-0.081-0.575c-0.203-1.425-0.378-2.857-0.521-4.301
				c-0.016-0.157-0.028-0.315-0.042-0.472c-0.139-1.485-0.25-2.976-0.325-4.479c-0.004-0.099-0.007-0.199-0.011-0.299
				c-0.072-1.566-0.114-3.14-0.114-4.724c-0.006-36.048,19.169-68.968,49.755-87.038v32.199c-1.06,1-2.091,2.022-3.085,3.073
				c-13.237,13.993-20.693,32.447-20.693,51.767c0,1.254,0.034,2.5,0.095,3.739c0.02,0.412,0.06,0.818,0.087,1.229
				c0.055,0.824,0.108,1.648,0.188,2.464c0.048,0.484,0.115,0.963,0.171,1.444c0.087,0.736,0.173,1.471,0.281,2.202
				c0.076,0.506,0.167,1.007,0.253,1.512c0.118,0.695,0.236,1.389,0.373,2.078c0.102,0.514,0.218,1.023,0.331,1.534
				c0.148,0.669,0.297,1.337,0.463,1.999c0.128,0.512,0.266,1.02,0.405,1.528c0.177,0.651,0.36,1.299,0.553,1.943
				c0.152,0.504,0.312,1.005,0.474,1.505c0.207,0.638,0.422,1.272,0.646,1.903c0.175,0.492,0.354,0.983,0.539,1.47
				c0.238,0.627,0.484,1.249,0.739,1.868c0.196,0.477,0.393,0.954,0.599,1.426c0.269,0.621,0.551,1.234,0.837,1.846
				c0.214,0.456,0.425,0.914,0.648,1.365c0.305,0.62,0.623,1.231,0.945,1.841c0.226,0.43,0.449,0.862,0.683,1.287
				c0.346,0.627,0.708,1.243,1.071,1.859c0.233,0.394,0.459,0.792,0.698,1.181c0.402,0.655,0.823,1.296,1.244,1.937
				c0.22,0.336,0.433,0.678,0.659,1.01c0.512,0.752,1.045,1.49,1.584,2.223c0.152,0.208,0.297,0.423,0.452,0.629
				c0.709,0.945,1.438,1.872,2.19,2.783c0.047,0.057,0.098,0.111,0.145,0.168c0.699,0.84,1.415,1.667,2.148,2.477
				c0.232,0.255,0.474,0.499,0.709,0.751c0.561,0.601,1.123,1.201,1.703,1.784c0.297,0.299,0.606,0.587,0.908,0.88
				c0.534,0.52,1.068,1.037,1.618,1.542c0.337,0.309,0.683,0.608,1.026,0.91c0.532,0.471,1.065,0.938,1.611,1.394
				c0.365,0.305,0.738,0.601,1.11,0.899c0.54,0.434,1.083,0.865,1.635,1.284c0.387,0.295,0.781,0.582,1.174,0.869
				c0.552,0.403,1.109,0.8,1.672,1.189c0.407,0.281,0.817,0.555,1.23,0.827c0.568,0.374,1.14,0.741,1.717,1.101
				c0.423,0.263,0.847,0.522,1.274,0.777c0.584,0.347,1.174,0.685,1.769,1.017c0.435,0.244,0.87,0.485,1.311,0.72
				c0.604,0.322,1.216,0.632,1.83,0.937c0.443,0.22,0.884,0.443,1.331,0.654c0.631,0.299,1.271,0.582,1.911,0.865
				c0.443,0.195,0.883,0.394,1.33,0.581c0.667,0.278,1.343,0.538,2.019,0.797c0.434,0.166,0.864,0.341,1.301,0.499
				c0.727,0.264,1.465,0.504,2.203,0.746c0.397,0.13,0.789,0.271,1.189,0.394c0.897,0.277,1.806,0.529,2.718,0.772
				c0.248,0.067,0.492,0.145,0.742,0.208c1.163,0.298,2.336,0.57,3.521,0.814c0.326,0.067,0.658,0.117,0.986,0.18
				c0.86,0.165,1.721,0.328,2.59,0.463c0.471,0.073,0.948,0.127,1.421,0.191c0.626,0.086,1.247,0.182,1.878,0.253V484.681z
				 M335.453,383.888c0-16.189,6.749-31.615,18.617-42.775h39.969h39.893c11.917,11.083,18.695,26.508,18.695,42.775
				c0,32.262-26.281,58.509-58.587,58.509C361.736,442.397,335.453,416.15,335.453,383.888z M402.387,484.681V458.62
				c37.595-4.164,66.935-36.084,66.935-74.732c0-20.816-8.618-40.554-23.778-54.773v-32.253c30.59,18.069,49.76,50.967,49.76,87.024
				C495.304,436.849,454.334,480.427,402.387,484.681z"/>
		</g>
	</g>
</g>
<g>
</g>
<g>
</g>
<g>
</g>
<g>
</g>
<g>
</g>
<g>
</g>
<g>
</g>
<g>
</g>
<g>
</g>
<g>
</g>
<g>
</g>
<g>
</g>
<g>
</g>
<g>
</g>
<g>
</g>
</svg>
