<?xml version="1.0" encoding="iso-8859-1"?>
<!-- Generator: Adobe Illustrator 19.0.0, SVG Export Plug-In . SVG Version: 6.00 Build 0)  -->
<svg version="1.1" id="Layer_1" xmlns="http://www.w3.org/2000/svg" xmlns:xlink="http://www.w3.org/1999/xlink" x="0px" y="0px"
	 viewBox="0 0 511.989 511.989" style="enable-background:new 0 0 511.989 511.989;" xml:space="preserve">
<g>
	<path style="fill:#7F4545;" d="M223.995,127.998H10.664C4.773,127.998,0,123.225,0,117.334s4.773-10.672,10.664-10.672h213.331
		c5.891,0,10.664,4.781,10.664,10.672S229.886,127.998,223.995,127.998z"/>
	<path style="fill:#7F4545;" d="M223.995,191.996H10.664C4.773,191.996,0,187.223,0,181.332s4.773-10.671,10.664-10.671h213.331
		c5.891,0,10.664,4.781,10.664,10.671C234.66,187.223,229.886,191.996,223.995,191.996z"/>
	<path style="fill:#7F4545;" d="M223.995,255.995H10.664C4.773,255.995,0,251.222,0,245.331s4.773-10.672,10.664-10.672h213.331
		c5.891,0,10.664,4.781,10.664,10.672S229.886,255.995,223.995,255.995z"/>
	<path style="fill:#7F4545;" d="M223.995,319.993H10.664C4.773,319.993,0,315.212,0,309.337c0-5.905,4.773-10.687,10.664-10.687
		h213.331c5.891,0,10.664,4.781,10.664,10.687C234.66,315.212,229.886,319.993,223.995,319.993z"/>
	<path style="fill:#7F4545;" d="M223.995,383.992H10.664C4.773,383.992,0,379.211,0,373.336c0-5.906,4.773-10.687,10.664-10.687
		h213.331c5.891,0,10.664,4.78,10.664,10.687C234.66,379.211,229.886,383.992,223.995,383.992z"/>
	<path style="fill:#7F4545;" d="M223.995,447.991H10.664C4.773,447.991,0,443.21,0,437.335c0-5.906,4.773-10.688,10.664-10.688
		h213.331c5.891,0,10.664,4.781,10.664,10.688C234.66,443.21,229.886,447.991,223.995,447.991z"/>
</g>
<path style="fill:#434A54;" d="M309.338,202.66c-5.906,0-10.688-4.773-10.688-10.664V53.335c0-5.891,4.781-10.671,10.688-10.671
	c5.875,0,10.656,4.781,10.656,10.671v138.661C319.994,197.887,315.213,202.66,309.338,202.66z"/>
<path style="fill:#ED5564;" d="M309.338,266.659c-23.531,0-42.68-19.141-42.68-42.664s19.148-42.663,42.68-42.663
	c23.515,0,42.654,19.14,42.654,42.663S332.852,266.659,309.338,266.659z M309.338,202.66c-11.781,0-21.344,9.57-21.344,21.335
	s9.562,21.335,21.344,21.335c11.75,0,21.312-9.57,21.312-21.335S321.088,202.66,309.338,202.66z"/>
<path style="fill:#434A54;" d="M415.991,202.66c-5.891,0-10.655-4.773-10.655-10.664V53.335c0-5.891,4.765-10.671,10.655-10.671
	s10.656,4.781,10.656,10.671v138.661C426.647,197.887,421.882,202.66,415.991,202.66z"/>
<path style="fill:#ED5564;" d="M415.991,266.659c-23.53,0-42.655-19.141-42.655-42.664s19.125-42.663,42.655-42.663
	s42.655,19.14,42.655,42.663S439.521,266.659,415.991,266.659z M415.991,202.66c-11.765,0-21.343,9.57-21.343,21.335
	s9.578,21.335,21.343,21.335c11.766,0,21.343-9.57,21.343-21.335S427.757,202.66,415.991,202.66z"/>
<g>
	<path style="fill:#965353;" d="M10.664,511.989C4.773,511.989,0,507.208,0,501.333V10.664C0,4.773,4.773,0,10.664,0
		s10.672,4.773,10.672,10.664v490.668C21.336,507.208,16.555,511.989,10.664,511.989z"/>
	<path style="fill:#965353;" d="M501.333,511.989c-5.906,0-10.687-4.781-10.687-10.656V10.664c0-5.891,4.78-10.664,10.687-10.664
		c5.875,0,10.656,4.773,10.656,10.664v490.668C511.989,507.208,507.208,511.989,501.333,511.989z"/>
	<path style="fill:#965353;" d="M223.995,511.989c-5.891,0-10.664-4.781-10.664-10.656V63.999c0-5.891,4.773-10.664,10.664-10.664
		s10.664,4.773,10.664,10.664v437.334C234.66,507.208,229.886,511.989,223.995,511.989z"/>
</g>
<path style="fill:#FFD2A6;" d="M511.989,63.999H0.001V0.001h511.988L511.989,63.999L511.989,63.999z"/>
<g>
	<path style="fill:#EAAD7A;" d="M469.334,10.664c5.875,0,10.656-4.773,10.656-10.664h-21.344
		C458.646,5.891,463.428,10.664,469.334,10.664z"/>
	<path style="fill:#EAAD7A;" d="M426.647,10.664c5.905,0,10.687-4.773,10.687-10.664h-21.343
		C415.991,5.891,420.772,10.664,426.647,10.664z"/>
	<path style="fill:#EAAD7A;" d="M383.992,10.664c5.891,0,10.656-4.773,10.656-10.664h-21.312
		C373.336,5.891,378.101,10.664,383.992,10.664z"/>
	<path style="fill:#EAAD7A;" d="M341.337,10.664c5.874,0,10.655-4.773,10.655-10.664h-21.343
		C330.649,5.891,335.431,10.664,341.337,10.664z"/>
	<path style="fill:#EAAD7A;" d="M298.65,10.664c5.906,0,10.688-4.773,10.688-10.664h-21.344
		C287.994,5.891,292.775,10.664,298.65,10.664z"/>
	<path style="fill:#EAAD7A;" d="M255.995,10.664c5.89,0,10.663-4.773,10.663-10.664h-21.327
		C245.331,5.891,250.104,10.664,255.995,10.664z"/>
	<path style="fill:#EAAD7A;" d="M213.332,10.664c5.89,0,10.664-4.773,10.664-10.664h-21.335
		C202.66,5.891,207.441,10.664,213.332,10.664z"/>
	<path style="fill:#EAAD7A;" d="M170.661,10.664c5.89,0,10.671-4.773,10.671-10.664h-21.335
		C159.997,5.891,164.77,10.664,170.661,10.664z"/>
	<path style="fill:#EAAD7A;" d="M127.998,10.664c5.89,0,10.664-4.773,10.664-10.664h-21.328
		C117.334,5.891,122.107,10.664,127.998,10.664z"/>
	<path style="fill:#EAAD7A;" d="M85.335,10.664c5.89,0,10.664-4.773,10.664-10.664H74.663C74.663,5.891,79.444,10.664,85.335,10.664
		z"/>
	<path style="fill:#EAAD7A;" d="M42.664,10.664c5.89,0,10.671-4.773,10.671-10.664H32C32,5.891,36.773,10.664,42.664,10.664z"/>
</g>
<g>
</g>
<g>
</g>
<g>
</g>
<g>
</g>
<g>
</g>
<g>
</g>
<g>
</g>
<g>
</g>
<g>
</g>
<g>
</g>
<g>
</g>
<g>
</g>
<g>
</g>
<g>
</g>
<g>
</g>
</svg>
