<?xml version="1.0" encoding="iso-8859-1"?>
<!-- Generator: Adobe Illustrator 18.0.0, SVG Export Plug-In . SVG Version: 6.00 Build 0)  -->
<!DOCTYPE svg PUBLIC "-//W3C//DTD SVG 1.1//EN" "http://www.w3.org/Graphics/SVG/1.1/DTD/svg11.dtd">
<svg version="1.1" id="Capa_1" xmlns="http://www.w3.org/2000/svg" xmlns:xlink="http://www.w3.org/1999/xlink" x="0px" y="0px"
	 viewBox="0 0 335.273 335.273" style="enable-background:new 0 0 335.273 335.273;" xml:space="preserve">
<path d="M30.521,175.51h24.063L0,288.704h14.432L69.015,175.51h22.466l54.583,113.194h14.432L105.913,175.51H229.36l-54.583,113.194
	h14.432l54.583-113.194h22.466l54.583,113.194h14.432L280.689,175.51h22.333c16.717,0,30.316-13.6,30.316-30.316v-43.562
	c0-30.361-24.701-55.063-55.063-55.063H55.267c-30.361,0-55.063,24.701-55.063,55.063v43.562
	C0.204,161.91,13.804,175.51,30.521,175.51z M133.356,59.569h144.921c23.193,0,42.063,18.869,42.063,42.063v43.562
	c0,9.548-7.769,17.316-17.316,17.316H111.945c-7.778,0-14.106-6.328-14.106-14.106V95.087
	C97.838,75.503,113.772,59.569,133.356,59.569z M13.204,101.632c0-23.193,18.869-42.063,42.063-42.063h45.084
	c-9.533,8.865-15.513,21.503-15.513,35.518v53.316c0,5.164,1.453,9.994,3.969,14.106H30.521c-9.548,0-17.316-7.769-17.316-17.316
	V101.632z"/>
<g>
</g>
<g>
</g>
<g>
</g>
<g>
</g>
<g>
</g>
<g>
</g>
<g>
</g>
<g>
</g>
<g>
</g>
<g>
</g>
<g>
</g>
<g>
</g>
<g>
</g>
<g>
</g>
<g>
</g>
</svg>
