<?xml version="1.0" encoding="iso-8859-1"?>
<!-- Generator: Adobe Illustrator 19.0.0, SVG Export Plug-In . SVG Version: 6.00 Build 0)  -->
<svg version="1.1" id="Layer_1" xmlns="http://www.w3.org/2000/svg" xmlns:xlink="http://www.w3.org/1999/xlink" x="0px" y="0px"
	 viewBox="0 0 512 512" style="enable-background:new 0 0 512 512;" xml:space="preserve">
<g>
	<g>
		<path d="M440.887,117.967c-27.022,0-51.777,15.598-63.683,39.466H242.039c-11.906-23.869-36.661-39.466-63.683-39.466
			c-39.212,0-71.113,31.901-71.113,71.113c0,39.213,31.901,71.114,71.113,71.114c27.022,0,51.777-15.598,63.683-39.466h135.165
			c11.906,23.869,36.661,39.466,63.683,39.466c39.212,0,71.113-31.902,71.113-71.114S480.099,117.967,440.887,117.967z
			 M440.887,239.796c-20.998,0-40.076-13.205-47.473-32.859c-1.496-3.975-5.298-6.607-9.545-6.607H235.375
			c-4.247,0-8.049,2.632-9.545,6.607c-7.398,19.654-26.475,32.859-47.473,32.859c-27.964,0-50.714-22.751-50.714-50.716
			s22.75-50.714,50.714-50.714c20.998,0,40.076,13.205,47.473,32.859c1.496,3.975,5.298,6.607,9.545,6.607h148.493
			c4.247,0,8.049-2.632,9.545-6.607c7.397-19.654,26.475-32.859,47.473-32.859c27.964,0,50.715,22.75,50.715,50.714
			C491.602,217.045,468.851,239.796,440.887,239.796z"/>
	</g>
</g>
<g>
	<g>
		<path d="M333.643,251.806c-27.022,0-51.777,15.598-63.683,39.466H134.796c-11.906-23.869-36.661-39.466-63.683-39.466
			C31.901,251.806,0,283.708,0,322.92s31.901,71.113,71.113,71.113c27.022,0,51.777-15.598,63.683-39.466h135.165
			c11.906,23.869,36.661,39.466,63.683,39.466c39.212,0,71.114-31.901,71.113-71.113
			C404.756,283.707,372.855,251.806,333.643,251.806z M333.643,373.635c-20.998,0-40.076-13.205-47.473-32.859
			c-1.496-3.975-5.299-6.607-9.545-6.607H128.132c-4.247,0-8.049,2.632-9.545,6.607c-7.397,19.654-26.475,32.859-47.473,32.859
			c-27.964,0-50.714-22.75-50.714-50.715c0-27.965,22.75-50.716,50.714-50.716c20.998,0,40.076,13.205,47.473,32.859
			c1.496,3.975,5.299,6.607,9.545,6.607h148.493c4.247,0,8.049-2.632,9.545-6.607c7.397-19.654,26.475-32.859,47.473-32.859
			c27.964,0,50.714,22.751,50.714,50.716S361.608,373.635,333.643,373.635z"/>
	</g>
</g>
<g>
	<g>
		<path d="M470.898,196.64c-4.619-3.224-10.978-2.091-14.2,2.529c-0.841,1.207-1.829,2.312-2.933,3.288
			c-4.222,3.728-4.624,10.173-0.896,14.396c2.016,2.284,4.826,3.449,7.65,3.449c2.398,0,4.807-0.84,6.745-2.552
			c2.32-2.049,4.395-4.374,6.164-6.911C476.651,206.22,475.518,199.863,470.898,196.64z"/>
	</g>
</g>
<g>
	<g>
		<path d="M475.191,169.3c-6.912-11.949-19.773-19.371-33.566-19.371c-5.633,0-10.199,4.566-10.199,10.199
			s4.566,10.199,10.199,10.199c6.535,0,12.631,3.52,15.908,9.186c1.891,3.268,5.317,5.094,8.839,5.094
			c1.733,0,3.49-0.442,5.098-1.371C476.346,180.415,478.011,174.176,475.191,169.3z"/>
	</g>
</g>
<g>
</g>
<g>
</g>
<g>
</g>
<g>
</g>
<g>
</g>
<g>
</g>
<g>
</g>
<g>
</g>
<g>
</g>
<g>
</g>
<g>
</g>
<g>
</g>
<g>
</g>
<g>
</g>
<g>
</g>
</svg>
